<svg width="553" height="378" viewBox="0 0 553 378" fill="none" xmlns="http://www.w3.org/2000/svg">
  <path d="M474.756 157.829C482.378 165.818 490.882 167.092 500.268 161.653C496.329 155.346 495.391 148.486 496.441 141.259H478.157C478.967 147.609 478.75 153.523 474.756 157.829Z" fill="#FFB8B8" />
  <path d="M504.945 366.875L514.725 361.777L518.977 307.816V279.348L496.441 278.923L502.819 307.391L504.945 366.875Z" fill="#FFB8B8" />
  <path d="M476.597 366.875L466.817 361.777L462.566 307.816V279.348L485.101 278.923L478.723 307.391L476.597 366.875Z" fill="#FFB8B8" />
  <path d="M461.575 285.296L485.386 283.172L489.213 261.502L493.89 282.747L519.827 281.047C520.394 270.723 518.954 260.098 515.575 249.181L458.598 247.906L461.575 285.296Z" fill="#2F2E41" />
  <path d="M436.826 203.916L408.183 181.876C407.886 181.648 407.559 181.46 407.212 181.319L403.048 179.626C399.705 178.267 393.336 173.745 396.442 169.089C398.946 165.336 408.532 172.06 409.712 174.551C410.084 175.335 410.696 175.981 411.458 176.397L417.279 179.585C417.42 179.662 417.566 179.731 417.716 179.792L439.877 188.768C440.491 189.017 441.156 189.115 441.816 189.056C442.476 188.996 443.112 188.78 443.672 188.425L447.69 185.88C448.262 185.518 448.913 185.3 449.588 185.246C450.263 185.192 450.94 185.303 451.562 185.569C452.185 185.836 452.732 186.25 453.158 186.776C453.584 187.301 453.876 187.923 454.007 188.586L455.335 195.283C455.526 196.247 455.37 197.248 454.893 198.108C454.417 198.968 453.652 199.632 452.732 199.982L440.851 204.508C440.185 204.761 439.466 204.84 438.761 204.736C438.056 204.633 437.39 204.35 436.826 203.916Z" fill="#FFB8B8" />
  <path d="M442.146 187.858C450.076 185.733 449.243 196.804 455.294 202.247L467.189 192.863L460.299 159.529C458.45 160.057 456.75 161.007 455.332 162.304C453.914 163.602 452.818 165.211 452.129 167.005L442.146 187.858Z" fill="#FF5757" />
  <path d="M456.897 250.031H516.851C507.148 223.902 508.092 197.03 516.354 169.645C516.493 169.191 516.468 168.702 516.285 168.263C516.102 167.825 515.771 167.464 515.35 167.243L498.142 158.254C491.387 162.646 484.127 161.297 476.457 155.28L457.748 160.379C462.841 190.945 462.985 220.883 456.897 250.031Z" fill="#FF5757" />
  <path d="M471.889 376.854L446.904 377.913C445.816 377.959 444.749 377.601 443.909 376.909C443.07 376.216 442.516 375.237 442.355 374.161C442.192 373.075 442.441 371.966 443.054 371.054C443.667 370.141 444.599 369.49 445.667 369.228L449.905 368.19L466.561 358.543C469.028 361.097 472.426 363.256 476.58 365.094L476.629 371.877C476.638 373.159 476.149 374.394 475.265 375.322C474.381 376.251 473.17 376.8 471.889 376.854Z" fill="#2F2E41" />
  <path d="M509.446 376.475L534.431 377.534C535.519 377.58 536.585 377.222 537.425 376.529C538.265 375.837 538.818 374.858 538.98 373.782C539.142 372.695 538.893 371.587 538.28 370.674C537.667 369.762 536.736 369.111 535.667 368.849L531.43 367.811L514.774 358.164C512.306 360.718 508.908 362.877 504.754 364.715L504.705 371.498C504.696 372.78 505.185 374.015 506.069 374.943C506.954 375.872 508.164 376.421 509.446 376.475Z" fill="#2F2E41" />
  <path d="M485.386 148.907C492.9 148.907 498.992 142.819 498.992 135.31C498.992 127.801 492.9 121.714 485.386 121.714C477.871 121.714 471.779 127.801 471.779 135.31C471.779 142.819 477.871 148.907 485.386 148.907Z" fill="#FFB8B8" />
  <path d="M506.646 245.782L502.151 254.516C501.754 255.287 501.525 256.132 501.479 256.998C501.433 257.863 501.57 258.729 501.883 259.537C502.195 260.346 502.675 261.079 503.292 261.689C503.908 262.299 504.646 262.771 505.459 263.076C506.318 263.398 507.239 263.524 508.153 263.443C509.068 263.363 509.953 263.08 510.743 262.613C511.534 262.146 512.209 261.509 512.721 260.747C513.232 259.985 513.567 259.119 513.699 258.211L515.575 245.357L522.378 213.065L521.953 196.919H508.347C512.988 208.928 510.685 226.641 506.646 245.782Z" fill="#FFB8B8" />
  <path d="M506.221 198.619H524.504L521.85 178.582C521.491 175.865 520.455 173.281 518.839 171.066C517.223 168.851 515.078 167.076 512.599 165.902L506.221 198.619Z" fill="#FF5757" />
  <path d="M499.851 127.821C500.123 126.005 500.009 124.152 499.516 122.383C499.023 120.613 498.163 118.968 496.991 117.553C494.67 114.808 490.779 112.561 484.323 113.621C470.238 115.934 466.176 127.651 467.556 130.597C468.936 133.544 473.166 140.375 473.166 140.375C473.166 140.375 470.062 133.613 473.431 132.237C476.8 130.86 489.839 125.438 494.39 127.881C495.678 128.527 496.772 129.503 497.56 130.709C498.348 131.916 498.802 133.309 498.876 134.747L499.851 127.821Z" fill="#2F2E41" />
  <path d="M266.967 71.2351L261.496 74.0089C255.195 61.6106 246.847 50.3625 236.803 40.7375C187.48 -6.6458 108.775 -5.09666 61.3568 44.1908C13.9387 93.4783 15.489 172.126 64.8127 219.509C74.2003 228.545 84.9551 236.046 96.6808 241.735L94.0047 247.251C75.4188 238.233 59.2471 224.925 46.8257 208.427C34.4042 191.929 26.0896 172.715 22.5688 152.371C19.048 132.027 20.4221 111.138 26.5776 91.4294C32.733 71.7211 43.4931 53.7593 57.9689 39.028C72.4446 24.2967 90.2204 13.2188 109.828 6.70954C129.435 0.200305 150.311 -1.5534 170.73 1.59331C191.15 4.74002 210.527 12.6968 227.261 24.8063C243.995 36.9158 257.605 52.8304 266.967 71.2351Z" fill="#E6E6E6" />
  <path d="M81.8866 185.278C73.84 193.642 69.4478 204.857 69.6765 216.457C69.9051 228.057 74.7358 239.091 83.1059 247.132C91.4759 255.173 102.7 259.562 114.308 259.333C125.916 259.105 136.958 254.277 145.005 245.913L152.542 238.08L89.4233 177.444L81.8866 185.278Z" fill="#E6E6E6" />
  <path d="M85.1942 172.995C83.4032 174.861 82.4259 177.361 82.4768 179.946C82.5278 182.531 83.6028 184.99 85.4661 186.784L143.358 242.399C145.224 244.191 147.726 245.17 150.314 245.119C152.902 245.068 155.363 243.992 157.157 242.127C158.951 240.263 159.93 237.762 159.879 235.176C159.828 232.59 158.751 230.131 156.885 228.338L98.9934 172.723C97.1261 170.934 94.6246 169.957 92.0376 170.008C89.4507 170.059 86.9896 171.133 85.1942 172.995Z" fill="#535461" />
  <path d="M258.828 127.603L266.365 119.769C274.411 111.405 278.804 100.19 278.575 88.5899C278.346 76.9901 273.516 65.9561 265.146 57.9153C261.001 53.934 256.113 50.8073 250.759 48.7138C245.405 46.6203 239.691 45.601 233.943 45.7142C222.335 45.9427 211.293 50.7698 203.246 59.1337L195.71 66.9675L258.828 127.603Z" fill="#E6E6E6" />
  <path d="M191.094 62.92C189.303 64.786 188.326 67.2857 188.377 69.8707C188.428 72.4558 189.503 74.9151 191.366 76.7091L249.258 132.324C251.124 134.114 253.626 135.091 256.212 135.039C258.799 134.987 261.259 133.911 263.052 132.047C264.845 130.184 265.824 127.685 265.774 125.1C265.724 122.515 264.649 120.056 262.785 118.263L204.893 62.6484C203.026 60.8586 200.525 59.8821 197.938 59.933C195.351 59.9839 192.89 61.0581 191.094 62.92Z" fill="#535461" />
  <path d="M215.515 191.444V186.926C215.515 186.926 235.248 175.835 251.28 186.926V191.034L215.515 191.444Z" fill="#535461" />
  <path d="M395.16 191.444V186.926C395.16 186.926 414.892 175.835 430.925 186.926V191.034L395.16 191.444Z" fill="#535461" />
  <path d="M274.712 191.034H255.391C255.391 191.034 250.458 185.283 234.014 185.693C217.571 186.104 214.282 191.034 214.282 191.034C214.282 191.034 198.044 201.919 194.344 215.475C194.344 215.475 174.407 275.245 173.996 322.074C173.584 368.904 191.672 375.476 201.127 376.709C210.582 377.941 227.437 376.298 243.88 334.809L250.869 310.572C250.869 310.572 252.102 296.195 266.901 305.232C281.7 314.269 294.855 300.303 294.855 300.303H350.352C350.352 300.303 368.851 311.805 385.705 302.767C385.705 302.767 392.283 294.141 398.449 323.307C398.449 323.307 417.359 383.281 446.546 377.119C475.733 370.958 472.445 320.842 472.445 320.842C472.445 320.842 468.539 244.23 452.507 217.118C452.507 217.118 437.091 188.98 426.814 187.747C426.814 187.747 404.615 183.639 395.982 187.337L391.049 191.444L274.712 191.034Z" fill="#E6E6E6" />
  <path d="M229.903 267.029C249.656 267.029 265.668 251.028 265.668 231.291C265.668 211.553 249.656 195.552 229.903 195.552C210.151 195.552 194.139 211.553 194.139 231.291C194.139 251.028 210.151 267.029 229.903 267.029Z" fill="#535461" />
  <path d="M416.537 267.029C436.289 267.029 452.301 251.028 452.301 231.291C452.301 211.553 436.289 195.552 416.537 195.552C396.785 195.552 380.772 211.553 380.772 231.291C380.772 251.028 396.785 267.029 416.537 267.029Z" fill="#535461" />
  <path d="M236.135 223.321L231.367 227.536C230.963 227.891 230.443 228.087 229.905 228.087C229.367 228.087 228.848 227.891 228.444 227.536L223.667 223.321C223.434 223.116 223.246 222.863 223.117 222.58C222.988 222.297 222.921 221.989 222.919 221.678V210.082C222.92 209.496 223.154 208.935 223.568 208.522C223.983 208.108 224.545 207.876 225.131 207.876H234.688C235.274 207.875 235.836 208.106 236.251 208.519C236.665 208.932 236.899 209.493 236.9 210.078V221.67C236.897 221.984 236.828 222.293 236.696 222.578C236.564 222.863 236.373 223.116 236.135 223.321Z" fill="#E6E6E6" />
  <path d="M236.135 239.256L231.367 235.045C230.963 234.69 230.443 234.494 229.905 234.494C229.367 234.494 228.848 234.69 228.444 235.045L223.667 239.26C223.434 239.466 223.246 239.718 223.117 240.001C222.988 240.285 222.921 240.592 222.919 240.903V252.487C222.918 253.072 223.15 253.634 223.563 254.048C223.976 254.463 224.537 254.696 225.122 254.697H234.688C235.274 254.698 235.836 254.467 236.251 254.054C236.665 253.641 236.899 253.08 236.9 252.495V240.907C236.898 240.593 236.828 240.284 236.696 239.999C236.564 239.714 236.373 239.461 236.135 239.256Z" fill="#E6E6E6" />
  <path d="M221.932 237.526L226.15 232.753C226.506 232.349 226.702 231.83 226.702 231.293C226.702 230.755 226.506 230.236 226.15 229.832L221.932 225.059C221.726 224.826 221.473 224.639 221.19 224.51C220.907 224.381 220.599 224.313 220.288 224.311H208.695C208.11 224.312 207.548 224.546 207.134 224.96C206.72 225.374 206.488 225.936 206.488 226.521V236.072C206.487 236.657 206.718 237.219 207.132 237.633C207.545 238.048 208.106 238.281 208.691 238.282H220.292C220.603 238.279 220.911 238.21 221.193 238.08C221.476 237.949 221.728 237.761 221.932 237.526Z" fill="#E6E6E6" />
  <path d="M237.878 237.526L233.669 232.749C233.313 232.346 233.116 231.826 233.116 231.289C233.116 230.751 233.313 230.231 233.669 229.828L237.887 225.055C238.093 224.821 238.345 224.634 238.629 224.505C238.912 224.376 239.22 224.309 239.531 224.307H251.124C251.709 224.306 252.271 224.538 252.686 224.95C253.101 225.363 253.334 225.924 253.335 226.509V236.068C253.336 236.653 253.105 237.215 252.692 237.629C252.278 238.044 251.717 238.277 251.132 238.278H239.535C239.221 238.278 238.911 238.21 238.626 238.081C238.34 237.951 238.085 237.762 237.878 237.526Z" fill="#E6E6E6" />
  <path d="M278.412 296.195C292.715 296.195 304.31 284.608 304.31 270.315C304.31 256.022 292.715 244.436 278.412 244.436C264.108 244.436 252.513 256.022 252.513 270.315C252.513 284.608 264.108 296.195 278.412 296.195Z" fill="#535461" />
  <path d="M368.029 296.195C382.332 296.195 393.927 284.608 393.927 270.315C393.927 256.022 382.332 244.436 368.029 244.436C353.725 244.436 342.13 256.022 342.13 270.315C342.13 284.608 353.725 296.195 368.029 296.195Z" fill="#535461" />
  <path d="M278.412 287.568C287.947 287.568 295.677 279.844 295.677 270.315C295.677 260.787 287.947 253.062 278.412 253.062C268.876 253.062 261.146 260.787 261.146 270.315C261.146 279.844 268.876 287.568 278.412 287.568Z" fill="#E6E6E6" />
  <path d="M278.412 282.228C276.054 282.228 273.749 281.529 271.788 280.22C269.828 278.911 268.3 277.051 267.398 274.874C266.495 272.697 266.259 270.302 266.719 267.991C267.179 265.68 268.315 263.558 269.982 261.892C271.649 260.225 273.773 259.091 276.086 258.631C278.398 258.172 280.796 258.407 282.974 259.309C285.152 260.211 287.014 261.738 288.324 263.697C289.634 265.656 290.333 267.959 290.333 270.315C290.33 273.474 289.072 276.501 286.838 278.735C284.603 280.968 281.572 282.224 278.412 282.228ZM278.412 259.224C276.216 259.224 274.071 259.874 272.245 261.093C270.42 262.312 268.997 264.044 268.157 266.071C267.317 268.097 267.097 270.327 267.526 272.479C267.954 274.63 269.011 276.607 270.563 278.158C272.116 279.709 274.093 280.765 276.246 281.193C278.399 281.621 280.631 281.402 282.659 280.562C284.687 279.723 286.421 278.301 287.64 276.477C288.86 274.653 289.511 272.509 289.511 270.315C289.508 267.375 288.337 264.555 286.256 262.476C284.176 260.397 281.354 259.227 278.412 259.224Z" fill="#535461" />
  <path d="M368.029 287.568C377.564 287.568 385.294 279.844 385.294 270.315C385.294 260.787 377.564 253.062 368.029 253.062C358.493 253.062 350.763 260.787 350.763 270.315C350.763 279.844 358.493 287.568 368.029 287.568Z" fill="#E6E6E6" />
  <path d="M368.029 282.228C365.671 282.228 363.366 281.529 361.405 280.22C359.445 278.911 357.917 277.051 357.015 274.874C356.112 272.697 355.876 270.302 356.336 267.991C356.796 265.68 357.932 263.558 359.599 261.892C361.266 260.225 363.39 259.091 365.703 258.631C368.015 258.172 370.412 258.407 372.591 259.309C374.769 260.211 376.631 261.738 377.941 263.697C379.251 265.656 379.95 267.959 379.95 270.315C379.947 273.474 378.689 276.501 376.454 278.735C374.219 280.968 371.189 282.224 368.029 282.228ZM368.029 259.224C365.833 259.224 363.687 259.874 361.862 261.093C360.037 262.312 358.614 264.044 357.774 266.071C356.934 268.097 356.714 270.327 357.143 272.479C357.571 274.63 358.628 276.607 360.18 278.158C361.732 279.709 363.71 280.765 365.863 281.193C368.016 281.621 370.248 281.402 372.276 280.562C374.304 279.723 376.038 278.301 377.257 276.477C378.477 274.653 379.128 272.509 379.128 270.315C379.125 267.375 377.954 264.555 375.873 262.476C373.793 260.397 370.971 259.227 368.029 259.224Z" fill="#535461" />
  <path d="M324.042 280.585C328.129 280.585 331.442 277.274 331.442 273.191C331.442 269.107 328.129 265.797 324.042 265.797C319.956 265.797 316.643 269.107 316.643 273.191C316.643 277.274 319.956 280.585 324.042 280.585Z" fill="#535461" />
  <path d="M312.733 250.125C313.626 250.125 314.349 249.402 314.349 248.511C314.349 247.619 313.626 246.896 312.733 246.896C311.841 246.896 311.118 247.619 311.118 248.511C311.118 249.402 311.841 250.125 312.733 250.125Z" fill="#535461" />
  <path d="M318.785 250.125C319.677 250.125 320.4 249.402 320.4 248.511C320.4 247.619 319.677 246.896 318.785 246.896C317.892 246.896 317.169 247.619 317.169 248.511C317.169 249.402 317.892 250.125 318.785 250.125Z" fill="#535461" />
  <path d="M317.979 257.786C318.871 257.786 319.594 257.063 319.594 256.172C319.594 255.28 318.871 254.557 317.979 254.557C317.087 254.557 316.363 255.28 316.363 256.172C316.363 257.063 317.087 257.786 317.979 257.786Z" fill="#535461" />
  <path d="M323.631 257.992C324.539 257.992 325.276 257.256 325.276 256.348C325.276 255.441 324.539 254.705 323.631 254.705C322.723 254.705 321.987 255.441 321.987 256.348C321.987 257.256 322.723 257.992 323.631 257.992Z" fill="#535461" />
  <path d="M329.275 257.786C330.168 257.786 330.891 257.063 330.891 256.172C330.891 255.28 330.168 254.557 329.275 254.557C328.383 254.557 327.66 255.28 327.66 256.172C327.66 257.063 328.383 257.786 329.275 257.786Z" fill="#535461" />
  <path d="M315.557 254.159C316.45 254.159 317.173 253.436 317.173 252.545C317.173 251.653 316.45 250.93 315.557 250.93C314.665 250.93 313.942 251.653 313.942 252.545C313.942 253.436 314.665 254.159 315.557 254.159Z" fill="#535461" />
  <path d="M320.754 254.295C321.662 254.295 322.398 253.559 322.398 252.651C322.398 251.744 321.662 251.008 320.754 251.008C319.845 251.008 319.109 251.744 319.109 252.651C319.109 253.559 319.845 254.295 320.754 254.295Z" fill="#535461" />
  <path d="M326.098 254.295C327.006 254.295 327.742 253.559 327.742 252.651C327.742 251.744 327.006 251.008 326.098 251.008C325.19 251.008 324.453 251.744 324.453 252.651C324.453 253.559 325.19 254.295 326.098 254.295Z" fill="#535461" />
  <path d="M331.697 254.159C332.589 254.159 333.312 253.436 333.312 252.545C333.312 251.653 332.589 250.93 331.697 250.93C330.804 250.93 330.081 251.653 330.081 252.545C330.081 253.436 330.804 254.159 331.697 254.159Z" fill="#535461" />
  <path d="M323.631 250.187C324.539 250.187 325.276 249.451 325.276 248.544C325.276 247.636 324.539 246.9 323.631 246.9C322.723 246.9 321.987 247.636 321.987 248.544C321.987 249.451 322.723 250.187 323.631 250.187Z" fill="#535461" />
  <path d="M329.386 250.187C330.295 250.187 331.031 249.451 331.031 248.544C331.031 247.636 330.295 246.9 329.386 246.9C328.478 246.9 327.742 247.636 327.742 248.544C327.742 249.451 328.478 250.187 329.386 250.187Z" fill="#535461" />
  <path d="M334.118 250.125C335.01 250.125 335.734 249.402 335.734 248.511C335.734 247.619 335.01 246.896 334.118 246.896C333.226 246.896 332.502 247.619 332.502 248.511C332.502 249.402 333.226 250.125 334.118 250.125Z" fill="#535461" />
  <path d="M262.585 194.535C261.824 194.536 261.095 194.838 260.558 195.375C260.02 195.912 259.717 196.641 259.717 197.401V206.027C259.717 206.787 260.02 207.516 260.558 208.053C261.095 208.59 261.824 208.893 262.585 208.893H264.64C265.401 208.893 266.13 208.59 266.667 208.053C267.205 207.516 267.507 206.787 267.508 206.027V197.401C267.507 196.641 267.205 195.912 266.667 195.375C266.13 194.838 265.401 194.536 264.64 194.535H262.585Z" fill="#535461" />
  <path d="M382.622 194.535C381.862 194.535 381.132 194.838 380.595 195.375C380.057 195.912 379.755 196.641 379.754 197.401V206.027C379.755 206.787 380.057 207.516 380.595 208.053C381.132 208.59 381.862 208.893 382.622 208.893H384.678C385.438 208.893 386.167 208.59 386.705 208.053C387.242 207.516 387.545 206.787 387.546 206.027V197.401C387.545 196.641 387.242 195.912 386.705 195.375C386.167 194.838 385.438 194.535 384.678 194.535H382.622Z" fill="#535461" />
  <path d="M416.948 219.378C422.397 219.378 426.814 214.964 426.814 209.519C426.814 204.074 422.397 199.66 416.948 199.66C411.499 199.66 407.082 204.074 407.082 209.519C407.082 214.964 411.499 219.378 416.948 219.378Z" fill="#E6E6E6" />
  <path d="M395.982 240.328C401.431 240.328 405.849 235.914 405.849 230.469C405.849 225.024 401.431 220.61 395.982 220.61C390.534 220.61 386.116 225.024 386.116 230.469C386.116 235.914 390.534 240.328 395.982 240.328Z" fill="#E6E6E6" />
  <path d="M438.735 239.096C444.184 239.096 448.602 234.682 448.602 229.237C448.602 223.792 444.184 219.378 438.735 219.378C433.287 219.378 428.869 223.792 428.869 229.237C428.869 234.682 433.287 239.096 438.735 239.096Z" fill="#E6E6E6" />
  <path d="M418.592 260.867C424.041 260.867 428.458 256.453 428.458 251.008C428.458 245.563 424.041 241.149 418.592 241.149C413.143 241.149 408.726 245.563 408.726 251.008C408.726 256.453 413.143 260.867 418.592 260.867Z" fill="#E6E6E6" />
  <path d="M281.186 188.784C278.982 188.786 276.868 189.662 275.309 191.22C273.751 192.778 272.874 194.89 272.871 197.093V233.858C272.874 236.061 273.751 238.173 275.309 239.73C276.868 241.288 278.982 242.164 281.186 242.167H365.665C367.869 242.164 369.983 241.288 371.541 239.73C373.1 238.173 373.977 236.061 373.98 233.858V197.093C373.977 194.89 373.1 192.778 371.541 191.22C369.983 189.662 367.869 188.786 365.665 188.784H281.186Z" fill="#535461" />
  <path d="M423.651 214.038H410.271L416.73 202.973L423.651 214.038ZM411.703 213.216H422.167L416.754 204.562L411.703 213.216Z" fill="#535461" />
  <path d="M401.532 235.398H390.433V225.54H401.532V235.398ZM391.255 234.577H400.71V226.361H391.255V234.577Z" fill="#535461" />
  <path d="M438.736 235.398C437.516 235.398 436.324 235.037 435.31 234.36C434.296 233.683 433.505 232.721 433.039 231.595C432.572 230.469 432.45 229.23 432.688 228.035C432.926 226.839 433.513 225.741 434.375 224.88C435.238 224.018 436.336 223.431 437.533 223.193C438.729 222.956 439.969 223.078 441.095 223.544C442.222 224.01 443.185 224.8 443.863 225.813C444.54 226.827 444.902 228.018 444.902 229.237C444.9 230.87 444.25 232.436 443.094 233.592C441.938 234.747 440.37 235.397 438.736 235.398ZM438.736 223.896C437.679 223.896 436.645 224.21 435.767 224.796C434.888 225.383 434.203 226.217 433.798 227.193C433.394 228.169 433.288 229.243 433.494 230.278C433.7 231.314 434.209 232.266 434.957 233.013C435.704 233.76 436.656 234.268 437.693 234.474C438.73 234.68 439.804 234.575 440.781 234.17C441.757 233.766 442.592 233.082 443.179 232.203C443.766 231.325 444.08 230.293 444.08 229.237C444.078 227.821 443.515 226.463 442.513 225.462C441.511 224.461 440.152 223.898 438.736 223.896Z" fill="#535461" />
  <path d="M414.155 246.096L413.574 246.677L422.824 255.92L423.405 255.339L414.155 246.096Z" fill="#535461" />
  <path d="M423.035 246.089L413.581 255.128L414.15 255.722L423.603 246.683L423.035 246.089Z" fill="#535461" />
  <path d="M87.383 94.9158C64.9377 101.099 40.3592 105.754 31.5522 98.5327C36.3741 90.5112 39.1552 82.605 39.3911 74.8424C39.4443 71.2906 40.8839 67.9001 43.4029 65.3938C45.0706 63.7839 47.0836 62.575 49.2889 61.8589C51.4942 61.1428 53.8339 60.9384 56.1301 61.2612L61.9552 62.078C62.1513 62.1055 62.3463 62.1367 62.5404 62.1717C65.3363 62.701 67.8962 64.0919 69.8607 66.1493C71.8252 68.2066 73.0956 70.8271 73.4935 73.6427C74.7208 82.0601 78.8478 89.3471 87.383 94.9158Z" fill="#2F2E41" />
  <path d="M109.034 174.773L117.76 176.571C118.427 176.708 119.054 176.992 119.597 177.402C120.14 177.812 120.585 178.337 120.899 178.941C121.214 179.544 121.39 180.209 121.415 180.889C121.44 181.568 121.313 182.245 121.043 182.869C120.783 183.473 120.396 184.013 119.908 184.454C119.42 184.894 118.843 185.225 118.216 185.423C117.589 185.621 116.927 185.682 116.274 185.602C115.621 185.521 114.994 185.301 114.434 184.957L101.086 176.754L78.4147 123.497L90.1573 120.103L109.034 174.773Z" fill="#A0616A" />
  <path d="M46.8741 244.656L40.267 246.576L35.2659 236.255L40.3515 233.607L46.8741 244.656Z" fill="#A0616A" />
  <path d="M43.517 288.877L35.4105 286.732L36.6796 272.815L43.656 273.244L43.517 288.877Z" fill="#A0616A" />
  <path d="M44.3624 235.008L35.7765 240.654L2.75423 203.329C2.03794 202.52 1.509 201.562 1.20504 200.525C0.901076 199.488 0.829566 198.397 0.995583 197.329C1.1616 196.261 1.56107 195.243 2.16558 194.347C2.77009 193.451 3.56477 192.699 4.49311 192.145L45.6307 167.582L51.9314 185.668L30.511 205.755L44.3624 235.008Z" fill="#2F2E41" />
  <path d="M51.593 254.546C51.5715 254.574 51.5499 254.602 51.5283 254.63C50.9795 257.84 50.0158 260.769 47.8635 262.889C47.2254 264.327 46.0797 265.48 44.645 266.127C43.2103 266.775 41.5872 266.871 40.0857 266.399C38.6696 265.953 37.4524 265.03 36.6423 263.787C35.8322 262.544 35.4795 261.058 35.6446 259.583L37.249 245.253C41.0976 244.369 44.0329 242.182 45.5186 237.927L49.2589 240.473C50.3658 241.22 51.3086 242.185 52.03 243.309C52.7513 244.432 53.236 245.691 53.4544 247.008C53.6728 248.325 53.6204 249.672 53.3004 250.968C52.9804 252.264 52.3994 253.482 51.593 254.546Z" fill="#2F2E41" />
  <path d="M55.6633 91.847C62.9618 91.847 68.8784 85.9348 68.8784 78.6417C68.8784 71.3486 62.9618 65.4363 55.6633 65.4363C48.3649 65.4363 42.4483 71.3486 42.4483 78.6417C42.4483 85.9348 48.3649 91.847 55.6633 91.847Z" fill="#A0616A" />
  <path d="M67.1075 99.7517L46.2741 116.993L44.6516 109.896L48.2879 104.357C49.2971 98.9227 48.6455 92.93 46.9115 86.5733L60.5038 86.5858C61.0906 91.7227 63.0919 96.2039 67.1075 99.7517Z" fill="#A0616A" />
  <path d="M72.973 144.978L44.8477 153.539L42.6596 143.543C37.3888 136.471 35.0976 130.016 38.5459 124.75L36.8107 116.823C41.7885 112.907 45.7029 108.9 47.8523 104.742L65.1568 97.9854L77.8779 98.7675L81.6344 111.347L72.973 144.978Z" fill="#FF5757" />
  <path d="M92.954 121.51C86.9588 121.446 81.0915 123.243 76.1609 126.651L77.8779 98.7675C79.6206 99 81.2727 99.682 82.6717 100.746C84.0706 101.81 85.1682 103.22 85.8564 104.837L92.954 121.51Z" fill="#FF5757" />
  <path d="M44.2744 276.575L35.3475 274.38L36.6615 198.584L48.6486 185.467L45.9653 168.837L44.229 150.208L73.5096 142.953C83.4065 160.91 89.3884 177.236 80.6565 187.434L44.2744 276.575Z" fill="#2F2E41" />
  <path d="M42.2241 302.166C42.184 302.182 42.144 302.198 42.1038 302.213C39.5117 305.221 36.6637 307.673 33.083 308.535C31.5124 309.636 29.591 310.12 27.6858 309.895C25.7807 309.671 24.0251 308.752 22.7545 307.316C21.5561 305.962 20.8659 304.233 20.802 302.426C20.738 300.619 21.3042 298.847 22.4038 297.411L33.0913 283.456C37.6657 284.95 42.1059 284.51 46.3332 281L48.6375 286.007C49.3232 287.482 49.7009 289.082 49.7474 290.708C49.794 292.334 49.5085 293.953 48.9083 295.465C48.3082 296.977 47.4059 298.351 46.2567 299.503C45.1075 300.656 43.7354 301.562 42.2241 302.166Z" fill="#2F2E41" />
  <path d="M9.61403 183.89L1.77858 190.593C1.12837 191.15 0.629219 191.861 0.327408 192.662C0.025597 193.462 -0.0691099 194.326 0.0520646 195.172C0.173239 196.019 0.506376 196.821 1.02059 197.505C1.53481 198.189 2.21346 198.732 2.99364 199.084C4.16813 199.614 5.50009 199.678 6.72026 199.264C7.94043 198.85 8.95779 197.989 9.56667 196.854L15.2328 186.293L41.2175 138.909L31.4446 137.074L9.61403 183.89Z" fill="#A0616A" />
  <path d="M42.7832 140.24C37.7078 138.709 32.9537 137.808 29.2666 138.998C30.0395 129.441 31.6324 120.903 36.8106 116.823L44.1719 117.687L42.7832 140.24Z" fill="#FF5757" />
  <path d="M70.4159 75.5796L42.1514 73.8418L42.4992 68.1931C52.3657 61.5451 61.7872 62.1244 70.7637 69.9309L70.4159 75.5796Z" fill="#2F2E41" />
</svg>