<svg xmlns="http://www.w3.org/2000/svg" xmlns:xlink="http://www.w3.org/1999/xlink" width="694" zoomAndPan="magnify" viewBox="0 0 520.5 349.499994" height="466" preserveAspectRatio="xMidYMid meet" version="1.0"><defs><clipPath id="7ebacaafc5"><path d="M 152 74.964844 L 352 74.964844 L 352 274 L 152 274 Z M 152 74.964844 " clip-rule="nonzero"/></clipPath><clipPath id="3f963a7d7b"><path d="M 153 111.453125 L 352.902344 111.453125 L 352.902344 274.335938 L 153 274.335938 Z M 153 111.453125 " clip-rule="nonzero"/></clipPath><clipPath id="4c1bfb1df9"><path d="M 76.082031 122 L 444.625 122 L 444.625 251 L 76.082031 251 Z M 76.082031 122 " clip-rule="nonzero"/></clipPath><clipPath id="933da29279"><path d="M 396.023438 239.585938 L 413 239.585938 L 413 256.929688 L 396.023438 256.929688 Z M 396.023438 239.585938 " clip-rule="nonzero"/></clipPath><clipPath id="87c8cc2d25"><path d="M 404.480469 239.585938 C 399.808594 239.585938 396.023438 243.328125 396.023438 247.949219 C 396.023438 252.566406 399.808594 256.3125 404.480469 256.3125 C 409.152344 256.3125 412.941406 252.566406 412.941406 247.949219 C 412.941406 243.328125 409.152344 239.585938 404.480469 239.585938 " clip-rule="nonzero"/></clipPath><clipPath id="7f2e44d9ed"><path d="M 75.828125 120.277344 L 93 120.277344 L 93 137 L 75.828125 137 Z M 75.828125 120.277344 " clip-rule="nonzero"/></clipPath><clipPath id="a54b9f513e"><path d="M 84.289062 120.277344 C 79.617188 120.277344 75.828125 124.023438 75.828125 128.640625 C 75.828125 133.257812 79.617188 137.003906 84.289062 137.003906 C 88.957031 137.003906 92.746094 133.257812 92.746094 128.640625 C 92.746094 124.023438 88.957031 120.277344 84.289062 120.277344 " clip-rule="nonzero"/></clipPath><clipPath id="cedcb10127"><path d="M 400.941406 77.300781 L 425 77.300781 L 425 101 L 400.941406 101 Z M 400.941406 77.300781 " clip-rule="nonzero"/></clipPath><clipPath id="08e8f52d28"><path d="M 412.941406 77.300781 C 406.3125 77.300781 400.941406 82.613281 400.941406 89.164062 C 400.941406 95.714844 406.3125 101.027344 412.941406 101.027344 C 419.566406 101.027344 424.9375 95.714844 424.9375 89.164062 C 424.9375 82.613281 419.566406 77.300781 412.941406 77.300781 " clip-rule="nonzero"/></clipPath><clipPath id="0266b2a8e0"><path d="M 97.382812 145.359375 L 107 145.359375 L 107 156 L 97.382812 156 Z M 97.382812 145.359375 " clip-rule="nonzero"/></clipPath><clipPath id="c91022e768"><path d="M 101.992188 145.359375 C 99.445312 145.359375 97.382812 147.617188 97.382812 150.402344 C 97.382812 153.1875 99.445312 155.445312 101.992188 155.445312 C 104.539062 155.445312 106.601562 153.1875 106.601562 150.402344 C 106.601562 147.617188 104.539062 145.359375 101.992188 145.359375 " clip-rule="nonzero"/></clipPath></defs><g clip-path="url(#7ebacaafc5)"><path fill="#fbfef9" d="M 351.707031 174.417969 C 351.707031 229.34375 307.207031 273.871094 252.304688 273.871094 C 197.402344 273.871094 152.898438 229.34375 152.898438 174.417969 C 152.898438 119.496094 197.402344 74.96875 252.304688 74.96875 C 307.207031 74.96875 351.707031 119.496094 351.707031 174.417969 " fill-opacity="1" fill-rule="nonzero"/></g><g clip-path="url(#3f963a7d7b)"><path fill="#fbfef9" d="M 167.542969 122.441406 C 167.542969 122.441406 166.648438 179.578125 201.25 186.683594 C 235.851562 193.792969 240.527344 208.761719 240.527344 208.761719 C 240.527344 208.761719 242.398438 263.03125 310.667969 237.769531 C 378.9375 212.507812 329.386719 111.628906 329.386719 111.628906 C 329.386719 111.628906 384.613281 182.875 322.855469 244.472656 C 261.101562 306.070312 191.753906 253.289062 191.753906 253.289062 C 191.753906 253.289062 125.417969 202.660156 167.542969 122.441406 " fill-opacity="1" fill-rule="nonzero"/></g><g clip-path="url(#4c1bfb1df9)"><path fill="#a63446" d="M 444.28125 139.707031 C 440.066406 123.195312 398.070312 118.605469 339.5625 125.59375 C 341.234375 128.382812 342.621094 131.335938 343.5625 134.414062 C 380.28125 132.054688 405.378906 136.515625 408.304688 147.976562 C 413.375 167.847656 349.882812 201.21875 266.496094 222.519531 C 183.105469 243.820312 111.394531 244.984375 106.320312 225.113281 C 103.484375 213.984375 122.152344 198.621094 153.773438 183.511719 C 153.332031 181.738281 153.054688 179.90625 152.96875 178.035156 C 152.917969 176.851562 152.96875 175.679688 153.109375 174.535156 C 103.332031 195.511719 72.4375 218.019531 76.429688 233.664062 C 82.601562 257.871094 169.957031 256.453125 271.535156 230.507812 C 373.117188 204.5625 450.457031 163.90625 444.28125 139.707031 " fill-opacity="1" fill-rule="nonzero"/></g><g clip-path="url(#933da29279)"><g clip-path="url(#87c8cc2d25)"><path fill="#fbfef9" d="M 396.023438 239.585938 L 413.367188 239.585938 L 413.367188 256.015625 L 396.023438 256.015625 Z M 396.023438 239.585938 " fill-opacity="1" fill-rule="nonzero"/></g></g><g clip-path="url(#7f2e44d9ed)"><g clip-path="url(#a54b9f513e)"><path fill="#fbfef9" d="M 75.828125 120.277344 L 93.171875 120.277344 L 93.171875 136.707031 L 75.828125 136.707031 Z M 75.828125 120.277344 " fill-opacity="1" fill-rule="nonzero"/></g></g><g clip-path="url(#cedcb10127)"><g clip-path="url(#08e8f52d28)"><path fill="#fbfef9" d="M 400.941406 77.300781 L 425.542969 77.300781 L 425.542969 100.605469 L 400.941406 100.605469 Z M 400.941406 77.300781 " fill-opacity="1" fill-rule="nonzero"/></g></g><g clip-path="url(#0266b2a8e0)"><g clip-path="url(#c91022e768)"><path fill="#fbfef9" d="M 97.382812 145.359375 L 106.507812 145.359375 L 106.507812 155.398438 L 97.382812 155.398438 Z M 97.382812 145.359375 " fill-opacity="1" fill-rule="nonzero"/></g></g></svg>